<svg xmlns="http://www.w3.org/2000/svg" viewBox="0 0 110 100"><path fill="#FFF" d="M99.865 9.522c5.513 5.514 8.353 12.449 8.521 20.803-.168 9.861-4.347 19.55-12.532 29.074-8.189 9.524-19.217 20.388-33.084 32.583L55 99l-7.77-7.018c-13.871-12.195-24.9-23.059-33.085-32.583C5.957 49.875 1.779 40.187 1.614 30.325c.165-8.354 3.008-15.289 8.522-20.803S22.581 1.169 30.939 1c4.676 0 9.105 1.003 13.284 3.008 4.175 2.005 7.77 4.68 10.778 8.021 3.007-3.34 6.599-6.016 10.777-8.021C69.952 2.003 74.382 1 79.062 1c8.353.169 15.289 3.008 20.803 8.522zm-13.66 44.99c7.601-8.436 11.486-16.5 11.654-24.187-.168-5.346-1.965-9.775-5.388-13.284-3.427-3.509-7.895-5.264-13.409-5.264-4.179 0-8.021 1.171-11.529 3.509-3.509 2.342-6.015 5.349-7.519 9.023H49.987c-1.504-3.674-4.01-6.681-7.519-9.023-3.509-2.338-7.355-3.509-11.529-3.509-5.514 0-9.987 1.754-13.409 5.264-3.427 3.509-5.225 7.938-5.389 13.284.164 7.687 4.049 15.751 11.655 24.187 7.601 8.439 17.834 18.339 30.703 29.7l.501.502.501-.501c12.865-11.362 23.098-21.261 30.704-29.701z"/></svg>