<?xml version="1.0" encoding="utf-8"?>
<!-- Generator: Adobe Illustrator 21.0.0, SVG Export Plug-In . SVG Version: 6.00 Build 0)  -->
<svg version="1.1" id="Слой_1" xmlns="http://www.w3.org/2000/svg" xmlns:xlink="http://www.w3.org/1999/xlink" x="0px" y="0px"
	 viewBox="0 0 431 299.996" enable-background="new 0 0 431 299.996" xml:space="preserve">
<path d="M0.683,227.889l0.923-0.721c1.711,0.121,2.972,0.181,3.783,0.181c2.026-0.075,4.667-0.383,7.925-0.923
	c4.605,5.837,9.267,11.44,13.986,16.812c4.718,5.371,9.635,10.667,14.751,15.889c5.116,5.221,10.295,10.221,15.538,14.999
	c5.243,4.779,10.76,9.523,16.551,14.234l-3.038-52.909c-0.09-1.215-0.349-2.457-0.776-3.725c-0.428-1.268-0.844-2.111-1.249-2.532
	c-0.315-0.555-0.893-1.072-1.733-1.553c-0.841-0.479-1.741-0.765-2.701-0.854l0.562-1.104c1.47,0.121,2.543,0.181,3.218,0.181
	c2.025-0.075,4.366-0.473,7.021-1.193l1.103,0.181c-0.061,1.5-0.169,3.421-0.327,5.761c-0.157,2.341-0.236,4.389-0.236,6.145
	c0,10.322,0.049,20.412,0.146,30.269c0.097,9.857,0.176,17.037,0.236,21.538l-1.846,10.397
	c-6.721-5.537-13.511-11.485-20.367-17.847c-6.857-6.361-13.563-12.873-20.12-19.534c-6.557-6.662-13.218-13.616-19.985-20.862
	l0.541,41.004c0.135,3.556,0.262,5.93,0.382,7.123c0.12,1.192,0.518,2.727,1.193,4.603c0.285,0.689,0.638,1.211,1.058,1.563
	s0.904,0.611,1.452,0.776c0.547,0.165,1.151,0.338,1.812,0.518l-0.18,0.923c-1.826-0.615-3.63-0.923-5.412-0.923
	c-0.868,0-2.156,0.12-3.862,0.36l-1.304-0.742c0.18-3.436,0.409-8.459,0.687-15.067c0.277-6.609,0.417-12.802,0.417-18.578
	c0-2.16,0.033-4.595,0.101-7.303c0.066-2.708,0.1-4.851,0.1-6.426c0-6.991-1.112-12.37-3.337-16.136
	c-1.037-1.801-2.278-2.997-3.721-3.59C2.532,228.229,1.434,227.919,0.683,227.889z"/>
<path d="M85.684,228.467l0.18-1.681c2.641,0.12,6.174,0.18,10.6,0.18c1.185-0.06,2.749-0.273,4.692-0.642
	c1.943-0.367,3.574-0.581,4.895-0.642l28.379-0.45l0.563,1.014c-0.51,1.296-1.065,2.871-1.666,4.726
	c-0.555,2.506-0.833,4.441-0.833,5.807h-1.283c-0.075-0.3-0.176-0.912-0.304-1.835c-0.127-0.922-0.334-1.657-0.619-2.205
	c-0.285-0.548-0.811-1.017-1.576-1.407c-2.205-0.989-8.409-1.484-18.611-1.484c-2.761,0-4.966,0.026-6.617,0.078
	c-1.65,0.053-2.858,0.095-3.624,0.124l0.565,25.983l30.965-0.742c-0.795,2.01-1.283,3.39-1.463,4.14
	c-0.105,0.48-0.24,1.042-0.405,1.688c-0.166,0.645-0.296,1.226-0.394,1.743s-0.169,0.972-0.214,1.361l-1.125,0.562
	c-0.12-0.33-0.232-0.874-0.337-1.631c-0.105-0.758-0.27-1.339-0.495-1.744c-0.225-0.404-0.683-0.667-1.373-0.787
	c-1.201-0.135-3.748-0.236-7.64-0.304c-3.893-0.067-7.404-0.108-10.532-0.124c-3.128-0.015-5.457-0.022-6.987-0.022l0.741,30.596
	l25.701,0.271c2.775,0,5.424-0.458,7.944-1.373c1.74-0.705,3.061-2.521,3.961-5.446l0.922,1.104l-3.42,10.238
	c-1.68,0.045-4.448,0.101-8.304,0.169c-3.856,0.067-7.997,0.101-12.422,0.101c-5.761,0-10.802-0.09-15.123-0.27
	c-1.182,0-2.611,0.173-4.287,0.518s-2.701,0.54-3.075,0.585v-26.818c0-5.759-0.109-11.653-0.327-17.683
	c-0.219-6.03-0.599-11.197-1.14-15.502c-0.542-4.305-1.257-6.727-2.145-7.267c-0.587-0.271-1.11-0.464-1.569-0.577
	c-0.459-0.112-0.888-0.188-1.287-0.226S85.895,228.513,85.684,228.467z"/>
<path d="M145.39,229.193l1.125-0.922c2.746,0.3,5.199,0.449,7.359,0.449c5.101,0,9.895-0.765,14.381-2.295h20.187
	c4.771,0,9.175,0.646,13.211,1.936c4.035,1.29,7.591,3.297,10.667,6.02c3.075,2.724,5.473,6.23,7.19,10.521
	s2.577,9.377,2.577,15.259c0,8.552-1.426,15.123-4.276,19.714s-7.104,8.372-12.761,11.343l-5.445,2.948
	c-4.456,2.28-8.695,3.421-12.716,3.421c-0.391,0-0.953,0.015-1.688,0.045c-0.735,0.03-1.283,0.045-1.644,0.045
	c-2.775,0-5.375-0.079-7.798-0.236s-5.548-0.387-9.373-0.687c-3.826-0.3-6.43-0.45-7.81-0.45c-0.57,0-1.298,0.03-2.183,0.09
	c-0.885,0.061-1.598,0.091-2.138,0.091l-1.755-1.104v-57.072c0-2.221-0.146-3.908-0.439-5.063s-0.942-2.052-1.947-2.689
	C149.111,229.918,147.536,229.464,145.39,229.193z M185.225,230.949h-25.161v59.908l30.404,1.666c0.676,0.06,1.628,0.09,2.858,0.09
	c3.405,0,6.365-0.48,8.878-1.44s4.64-2.569,6.381-4.827c1.74-2.258,3.079-5.356,4.017-9.295s1.43-8.863,1.475-14.774
	c0-5.762-0.713-10.66-2.139-14.696c-1.425-4.035-3.417-7.265-5.975-9.688c-2.559-2.423-5.574-4.186-9.047-5.288
	C193.442,231.501,189.545,230.949,185.225,230.949z"/>
<path d="M228.906,229.014l0.383-1.125c1.755,0.195,3.383,0.292,4.884,0.292c1.56,0,3.188-0.097,4.883-0.292
	c0.841-0.104,2.094-0.439,3.759-1.002s3.053-0.844,4.163-0.844h15.956c3.017,0,5.882,0.469,8.598,1.406
	c2.715,0.938,4.909,2.431,6.582,4.479c1.673,2.049,2.51,4.61,2.51,7.686c0,2.896-0.548,5.312-1.643,7.247
	c-1.096,1.936-2.532,3.549-4.31,4.839c-1.778,1.29-3.211,2.307-4.299,3.049c-1.088,0.743-1.632,1.444-1.632,2.104
	c0,0.405,1.253,0.72,3.759,0.945c2.505,0.225,4.876,0.664,7.111,1.316s4.324,2.123,6.268,4.411s3.02,5.652,3.229,10.094
	c0,7.637-3.969,13.503-11.905,17.599l-5.063,2.769c-2.476,1.38-4.779,2.37-6.909,2.971c-2.131,0.6-4.493,0.899-7.089,0.899
	c-1.11,0-1.974-0.03-2.588-0.09c-3.301-0.15-6.842-0.318-10.623-0.506c-3.78-0.188-6.602-0.326-8.462-0.417
	c0.375-6.511,0.562-11.92,0.562-16.226c0-4.682-0.127-9.348-0.382-13.998c-0.15-4.576-0.304-8.935-0.462-13.076
	c-0.157-4.141-0.349-7.756-0.573-10.847c-0.226-3.091-0.578-5.882-1.059-8.372c-0.479-2.49-1.103-3.991-1.867-4.501
	c-0.346-0.21-0.646-0.342-0.9-0.395c-0.256-0.052-0.646-0.108-1.17-0.168C230.092,229.201,229.521,229.119,228.906,229.014z
	 M260.436,229.824h-16.969v27.929h4.704h2.858c4.516,0,8.308-0.3,11.376-0.9c3.068-0.6,5.641-2.044,7.719-4.332
	s3.117-5.765,3.117-10.432c-0.06-2.445-0.668-4.598-1.822-6.459c-1.156-1.859-2.705-3.293-4.647-4.298
	C264.828,230.327,262.717,229.824,260.436,229.824z M243.67,261.533l1.282,30.046c1.591,0.81,3.725,1.319,6.403,1.529
	c2.678,0.21,6.657,0.314,11.938,0.314c4.201,0,7.592-0.431,10.173-1.293c2.58-0.861,4.542-2.484,5.885-4.868
	s2.015-5.795,2.015-10.233c0-5.262-1.839-9.16-5.515-11.693c-3.676-2.534-8.169-3.802-13.48-3.802H243.67z"/>
<path d="M309.835,295.922l-0.562,1.305c-3.556-0.495-5.949-0.742-7.18-0.742c-0.465,0-1.017,0.026-1.654,0.078
	c-0.638,0.053-1.268,0.124-1.89,0.214c-0.623,0.09-1.317,0.173-2.082,0.248l-0.743-1.283c2.071-3.165,3.931-6.219,5.582-9.159
	c1.65-2.94,3.124-5.78,4.422-8.519c1.298-2.737,2.7-5.862,4.209-9.373c1.508-3.511,2.951-6.909,4.332-10.195
	c2.265-5.056,4.212-10.033,5.84-14.932s2.441-8.586,2.441-11.062c0-0.435-0.06-0.952-0.18-1.553c-0.165-0.6-0.379-1.129-0.642-1.587
	c-0.263-0.457-0.562-0.893-0.9-1.305c-0.337-0.413-0.776-0.957-1.316-1.632l10.601-1.013c0.029,0.045,0.877,1.969,2.543,5.772
	c1.665,3.804,3.218,7.288,4.658,10.453c1.44,3.166,3.162,6.812,5.165,10.938c2.003,4.127,3.845,7.728,5.525,10.803
	c2.82,5.116,5.408,9.812,7.764,14.088c2.355,4.276,4.564,7.941,6.628,10.994c2.062,3.054,3.964,5.083,5.705,6.088
	c0.45,0.225,1.95,0.503,4.501,0.832l-0.54,1.104c-2.521-0.495-5.229-0.743-8.124-0.743c-1.921,0-4.007,0.188-6.257,0.562
	L340.892,266.8h-25.903l-10.037,23.968c-0.24,0.48-0.36,1.065-0.36,1.756c0,0.885,0.24,1.62,0.721,2.205
	C305.866,295.524,307.374,295.922,309.835,295.922z M339.519,264.212l-14.11-28.379l-9.497,28.379H339.519z"/>
<path d="M384.125,233.968l5.266-3.413c5.041-3.128,9.774-4.691,14.201-4.691c2.37,0,5.07,0.176,8.102,0.526
	c3.03,0.352,5.948,0.751,8.754,1.199s4.164,0.672,4.073,0.672l0.9,0.739c-1.351,3.961-2.025,7.734-2.025,11.319l-0.72,0.653
	c-0.136-0.601-0.354-1.464-0.653-2.59c-0.3-1.127-0.607-2.051-0.923-2.771c-0.404-0.9-1.732-1.696-3.983-2.387
	c-2.25-0.691-4.943-1.217-8.079-1.577s-6.211-0.541-9.227-0.541c-4.786,0.12-8.563,0.785-11.332,1.994
	c-2.768,1.209-4.151,3.833-4.151,7.872c0,5.391,1.777,9.352,5.333,11.882s9.332,3.796,17.329,3.796
	c6.196,0.104,11.545,1.646,16.046,4.624c4.501,2.979,6.774,7.461,6.819,13.447c0,5.432-2.729,10.225-8.189,14.381l-2.227,1.665
	c-0.36,0.271-1.062,0.766-2.104,1.485c-1.043,0.721-2.344,1.485-3.903,2.296c-1.561,0.81-3.349,1.519-5.365,2.127
	c-2.018,0.607-4.092,0.911-6.221,0.911c-2.835-0.06-5.999-0.296-9.494-0.706c-3.494-0.41-6.723-0.855-9.685-1.333
	c-2.963-0.479-4.368-0.717-4.219-0.717l-0.919-1.188c1.405-4.562,2.229-8.839,2.468-12.831l0.92,0.923
	c0,3.574,1.504,5.916,4.513,7.027c2.4,0.842,5.652,1.63,9.756,2.365s8.038,1.142,11.804,1.216c10.322,0,15.483-4.211,15.483-12.635
	c-0.12-3.769-0.882-6.787-2.284-9.055c-1.403-2.268-3.661-3.931-6.773-4.988c-3.114-1.059-7.341-1.634-12.682-1.724
	c-4.332-0.074-8.215-0.559-11.646-1.452c-3.433-0.893-6.281-2.597-8.544-5.112c-2.264-2.515-3.396-6.047-3.396-10.596
	c0.18-2.612,1.133-5.213,2.86-7.803S383.108,234.718,384.125,233.968z"/>
<g>
	<path d="M181.079,24.273c3.469,8.617,6.749,20.19,10.21,28.785c15.64-5.316,30.641-4.761,45.649-0.092
		c4.212-8.985,8.916-19.426,12.969-28.073c-3.569,4.45-8.083,11.894-13.348,14.664c-2.366-5.655-1.162-11.996-1.603-16.271
		c-1.587,4.704-5.695,11.577-9.445,14.452c-9.213-5.172-9.742-27.494-9.742-27.494s-2.196,23.414-9.235,26.557
		c-4.671-2.407-8.949-10.932-10.24-13.193c-0.032,4.86,1.123,14.878-2.055,16.499C188.917,37.348,184.443,28.371,181.079,24.273z"/>
	<ellipse transform="matrix(0.9694 -0.2454 0.2454 0.9694 5.3369 53.0919)" cx="215.72" cy="5.13" rx="3.809" ry="3.809"/>
	<ellipse transform="matrix(0.9694 -0.2454 0.2454 0.9694 1.5196 48.4894)" cx="195.342" cy="18.147" rx="3.809" ry="3.809"/>
	<ellipse transform="matrix(0.9694 -0.2454 0.2454 0.9694 0.791 44.5981)" cx="179.363" cy="19.125" rx="3.809" ry="3.809"/>
	<ellipse transform="matrix(0.9694 -0.2454 0.2454 0.9694 2.65 58.4063)" cx="235.703" cy="18.569" rx="3.809" ry="3.809"/>
	<ellipse transform="matrix(0.9694 -0.2454 0.2454 0.9694 2.9275 62.3425)" cx="251.637" cy="19.424" rx="3.809" ry="3.809"/>
</g>
<path d="M217.201,92.29c-0.01,0.027-0.021,0.052-0.031,0.079c0.019,0.005,0.042,0.009,0.061,0.014
	c-0.001-0.006-0.001-0.012-0.002-0.018C217.219,92.34,217.211,92.315,217.201,92.29z"/>
<path d="M122.386,86.093c-0.012,0.01-0.024,0.02-0.035,0.03C122.367,86.136,122.378,86.123,122.386,86.093z"/>
<path d="M97.374,151.917c6.389,8.235,1.619,18.196-6.708,23.477c2.045-2.945,3.319-6.762,3.468-8.46
	c0.161-1.834-0.16-3.711-0.157-3.657c-7.561-5.143-15.581,10.808-23.812-0.055c-1.43-1.536-5.19-7.331-5.02-11.305
	c2.316,2.624,6.581,8.009,9.272,8.476c2.952,0.512,6.452-2.716,9.839-3.975C87.757,155.118,93.68,153.02,97.374,151.917z"/>
<path d="M87.532,99.361c-12.245,15.419-30.239,19.127-28.942,28.371c0.613,2.266-5.499-1.959-5.008-5.069
	c0.491-3.111,29.751-25.089,32.463-25.089S88.777,97.691,87.532,99.361z"/>
<path d="M69.372,139.317c-5.045-0.788-7.118-2.151-9.953-6.623c-0.58-0.914-1.414-1.872-0.536-2.505
	c2.711-1.954,7.893-5.839,13.951-5.184c1.043,0.113,3.029,2.428,2.055,2.818c-5.491,2.199-1.388,7.257-3.459,10.848
	C70.816,139.737,70.272,139.458,69.372,139.317z"/>
<path d="M130.234,143.113c0.369-0.843-1.483-2.66-2.448-4.269c2.397-4.015,5.109-8.558,7.938-13.297
	c-10.473-3.853-9.525,5.64-12.915,10.046c-8.305-8.613,2.659-15.569,3.177-23.449c0,3.529,0,7.057,0,11.274
	c13.069-6.227,3.883-19.977,10.131-25.901c-1.661-3.011-4.156-5.874-3.577-6.786c1.92-3.024,4.613-5.939,7.696-7.672
	c1.434-0.806,5.513,0.507,6.547,2.076c2.826,4.287,6.693,9.311,6.486,13.878c-0.431,9.534-2.218,19.302-5.294,28.345
	c-3.747,11.018-7.328,12.78-7.819,25.704c-0.34,9.241,2.51,17.928,9.189,24.949c-5.017-22.413-1.909-36.156,14.338-52.959
	c11.906-11.389,11.057-26.654-0.571-38.123c-6.695-6.603-14.727-9.782-23.938-10.435c0,0-5.341,4.837-8.502,6.758
	c-11.725,7.127-13.824,12.684-7.662,20.371c-1.813,1.32-4.964,2.422-5.235,4.013c-1.427,8.395-8.379,10.425-14.297,14.042
	c-2.989,1.827-6.734,4.935-7.189,7.913c-1.268,8.316-5.656,12.804-13.737,15.276c4.265,1.097,7.218,2.081,11.114,2.386
	c3.672,0.288,2.618,0.746,6.871,0.746c2.509,9.07,3.218,10.051,2.318,18.722c-0.409,4.09-0.818,5.072-2.781,10.061
	c11.207-13.088,11.207-13.088,19.279-30.083c-4.473,32.128,37.168,47.031,50.661,56.096c-7.736-6.263-26.898-19.449-27.69-20.041
	C134.02,176.539,122.762,160.168,130.234,143.113z"/>
<path d="M209.168,72.652c-26.45-27.923-77.361-30.016-122.752-0.184c2.615,7.11,9.085,13.697,2.082,22.925
	c2.885-1.555,5.758-3.81,6.094-5.726c1.405-8.01,8.3-10.297,14.642-12.54c-3.171,5.943-8.089,0.572-13.988,18.266
	c2.809,0,5.487-9.777,11.834-10.525c5.513-0.65,8.734-5.841,8.534-9.906c6.063-1.718,5.898,0.47,6.681,9.743
	c0.013,0.149,0.14,1.188,0.09,1.388c4.334-3.585,10.786-10.379,24.887-11.695c-3.128-0.966-7.764-2.037-10.668-2.934
	c15.974-0.084,28.229-0.215,41.744,8.818c8.855,5.918,11.23,19.147,8.353,29.721c-3.71,13.635-10.227,17.686-20.074,26.859
	c-10.934,10.185-16.083,15.057-12.893,37.716c5.481-26.176,14.474-31.348,26.585-41.555c11.896-10.025,25.808-21.836,24.377-40.732
	c-1.151-15.186-16.986-26.409-33.28-31.189c-9.709-2.848-20.387-2.394-30.572-3.645c21.069-1.625,39.494,1.213,58.699,14.297
	c4.22,2.875,17.042,11.152,21.186,33.838C221.711,85.85,211.682,75.148,209.168,72.652z"/>
<path d="M94.008,108.899c1.066-5.383-3.308-8.048,11.656-11.543C116.986,94.711,93.314,112.402,94.008,108.899z"/>
<path d="M112.951,95.393c2.21-0.559,2.353-3.734,5.518-8.344c1.482-2.158-6.456,2.008-7.274,3.153s-1.217,4.536-1.217,4.536
	L112.951,95.393z"/>
<path d="M61.491,144.201c0,0,8.95,6.293,18.051,2.563C78.941,152.817,64.654,151.917,61.491,144.201z"/>
<path d="M213.787,92.29c0.01,0.027,0.021,0.052,0.031,0.079c-0.019,0.005-0.042,0.009-0.061,0.014
	c0.001-0.006,0.001-0.012,0.002-0.018C213.769,92.34,213.777,92.315,213.787,92.29z"/>
<path d="M308.602,86.093c0.012,0.01,0.024,0.02,0.035,0.03C308.621,86.136,308.61,86.123,308.602,86.093z"/>
<path d="M291.814,76.496c-9.211,0.652-17.243,3.832-23.938,10.435c-11.628,11.468-12.476,26.733-0.571,38.123
	c16.247,16.803,19.355,30.546,14.338,52.959c6.679-7.021,9.529-15.708,9.189-24.949c-0.491-12.925-4.072-14.686-7.819-25.704
	c-3.076-9.044-4.863-18.811-5.294-28.345c-0.207-4.567,3.66-9.592,6.486-13.878c1.035-1.569,5.114-2.882,6.547-2.076
	c3.084,1.733,5.777,4.648,7.696,7.672c0.579,0.912-1.916,3.776-3.577,6.786c6.248,5.925-2.938,19.675,10.131,25.901
	c0-4.216,0-7.745,0-11.274c0.517,7.881,11.481,14.836,3.177,23.449c-3.39-4.406-2.442-13.899-12.915-10.046
	c2.829,4.739,5.541,9.281,7.938,13.297c-0.965,1.609-2.817,3.425-2.448,4.269c7.472,17.055-3.787,33.426-12.09,39.643
	c-0.791,0.592-19.953,13.778-27.69,20.041c13.492-9.065,55.134-23.968,50.661-56.096c8.072,16.995,8.072,16.995,19.279,30.083
	c-1.963-4.99-2.372-5.971-2.781-10.061c-0.9-8.671-0.191-9.652,2.318-18.722c4.254,0,3.199-0.459,6.871-0.746
	c3.896-0.306,6.849-1.289,11.114-2.386c-8.082-2.472-12.469-6.961-13.737-15.276c-0.454-2.978-4.199-6.086-7.189-7.913
	c-5.918-3.617-12.87-5.647-14.297-14.042c-0.27-1.591-3.422-2.692-5.235-4.013c6.162-7.686,4.063-13.244-7.662-20.371
	C297.156,81.332,291.814,76.496,291.814,76.496z"/>
<path d="M333.614,151.917c-6.389,8.235-1.619,18.196,6.708,23.477c-2.045-2.945-3.319-6.762-3.468-8.46
	c-0.161-1.834,0.16-3.711,0.157-3.657c7.561-5.143,15.581,10.808,23.812-0.055c1.43-1.536,5.19-7.331,5.02-11.305
	c-2.316,2.624-6.581,8.009-9.272,8.476c-2.952,0.512-6.452-2.716-9.839-3.975C343.231,155.118,337.309,153.02,333.614,151.917z"/>
<path d="M343.456,99.361c12.245,15.419,30.239,19.127,28.941,28.371c-0.613,2.266,5.499-1.959,5.008-5.069
	s-29.751-25.089-32.463-25.089C342.231,97.574,342.211,97.691,343.456,99.361z"/>
<path d="M361.616,139.317c5.045-0.788,7.118-2.151,9.953-6.623c0.58-0.914,1.414-1.872,0.536-2.505
	c-2.711-1.954-7.893-5.839-13.951-5.184c-1.043,0.113-3.029,2.428-2.055,2.818c5.491,2.199,1.388,7.257,3.459,10.848
	C360.172,139.737,360.716,139.458,361.616,139.317z"/>
<path d="M344.572,72.468c-45.39-29.832-96.302-27.739-122.752,0.184c-2.513,2.496-12.543,13.197-11.561,32.938
	c4.145-22.686,16.966-30.963,21.186-33.838c19.205-13.084,37.63-15.922,58.699-14.297c-10.186,1.25-20.863,0.797-30.572,3.645
	c-16.294,4.78-32.13,16.003-33.28,31.189c-1.432,18.895,12.48,30.706,24.377,40.732c12.111,10.206,21.105,15.379,26.585,41.555
	c3.19-22.659-1.959-27.531-12.893-37.716c-9.848-9.173-16.365-13.224-20.074-26.859c-2.877-10.573-0.502-23.803,8.353-29.721
	c13.515-9.032,25.77-8.901,41.744-8.818c-2.904,0.897-7.54,1.968-10.668,2.934c14.101,1.316,20.552,8.111,24.887,11.695
	c-0.05-0.2,0.077-1.239,0.09-1.388c0.782-9.273,0.618-11.461,6.681-9.743c-0.2,4.066,3.021,9.257,8.534,9.907
	c6.347,0.748,9.025,10.525,11.834,10.525c-5.898-17.694-10.817-12.323-13.988-18.266c6.342,2.243,13.237,4.53,14.642,12.54
	c0.336,1.916,3.209,4.171,6.094,5.726C335.486,86.165,341.956,79.578,344.572,72.468z"/>
<path d="M336.98,108.899c-1.066-5.383,3.308-8.048-11.656-11.543C314.002,94.711,337.674,112.402,336.98,108.899z"/>
<path d="M318.037,95.393c-2.21-0.559-2.353-3.734-5.518-8.344c-1.482-2.158,6.456,2.008,7.274,3.153
	c0.818,1.145,1.217,4.536,1.217,4.536L318.037,95.393z"/>
<path d="M369.497,144.201c0,0-8.95,6.293-18.051,2.563C352.047,152.817,366.335,151.917,369.497,144.201z"/>
</svg>
