<svg xmlns="http://www.w3.org/2000/svg" viewBox="0 0 431 299.996"><path d="M.683 227.889l.923-.721c1.711.121 2.972.181 3.783.181 2.026-.075 4.667-.383 7.925-.923A414.078 414.078 0 0 0 27.3 243.238a398.692 398.692 0 0 0 14.751 15.889 382.1 382.1 0 0 0 15.538 14.999A388.511 388.511 0 0 0 74.14 288.36l-3.038-52.909a15.175 15.175 0 0 0-.776-3.725c-.428-1.268-.844-2.111-1.249-2.532-.315-.555-.893-1.072-1.733-1.553a6.637 6.637 0 0 0-2.701-.854l.562-1.104c1.47.121 2.543.181 3.218.181 2.025-.075 4.366-.473 7.021-1.193l1.103.181c-.061 1.5-.169 3.421-.327 5.761-.157 2.341-.236 4.389-.236 6.145 0 10.322.049 20.412.146 30.269.097 9.857.176 17.037.236 21.538l-1.846 10.397a459.853 459.853 0 0 1-20.367-17.847 617.995 617.995 0 0 1-20.12-19.534 1102.296 1102.296 0 0 1-19.985-20.862l.541 41.004c.135 3.556.262 5.93.382 7.123.12 1.192.518 2.727 1.193 4.603.285.689.638 1.211 1.058 1.563s.904.611 1.452.776c.547.165 1.151.338 1.812.518l-.18.923c-1.826-.615-3.63-.923-5.412-.923-.868 0-2.156.12-3.862.36l-1.304-.742c.18-3.436.409-8.459.687-15.067.277-6.609.417-12.802.417-18.578 0-2.16.033-4.595.101-7.303.066-2.708.1-4.851.1-6.426 0-6.991-1.112-12.37-3.337-16.136-1.037-1.801-2.278-2.997-3.721-3.59-1.443-.595-2.541-.905-3.292-.935zm85.001.578l.18-1.681c2.641.12 6.174.18 10.6.18 1.185-.06 2.749-.273 4.692-.642 1.943-.367 3.574-.581 4.895-.642l28.379-.45.563 1.014a83.118 83.118 0 0 0-1.666 4.726c-.555 2.506-.833 4.441-.833 5.807h-1.283c-.075-.3-.176-.912-.304-1.835-.127-.922-.334-1.657-.619-2.205s-.811-1.017-1.576-1.407c-2.205-.989-8.409-1.484-18.611-1.484-2.761 0-4.966.026-6.617.078-1.65.053-2.858.095-3.624.124l.565 25.983 30.965-.742c-.795 2.01-1.283 3.39-1.463 4.14-.105.48-.24 1.042-.405 1.688-.166.645-.296 1.226-.394 1.743s-.169.972-.214 1.361l-1.125.562c-.12-.33-.232-.874-.337-1.631-.105-.758-.27-1.339-.495-1.744-.225-.404-.683-.667-1.373-.787-1.201-.135-3.748-.236-7.64-.304a878.059 878.059 0 0 0-10.532-.124c-3.128-.015-5.457-.022-6.987-.022l.741 30.596 25.701.271c2.775 0 5.424-.458 7.944-1.373 1.74-.705 3.061-2.521 3.961-5.446l.922 1.104-3.42 10.238c-1.68.045-4.448.101-8.304.169-3.856.067-7.997.101-12.422.101-5.761 0-10.802-.09-15.123-.27-1.182 0-2.611.173-4.287.518s-2.701.54-3.075.585v-26.818c0-5.759-.109-11.653-.327-17.683-.219-6.03-.599-11.197-1.14-15.502-.542-4.305-1.257-6.727-2.145-7.267a8.913 8.913 0 0 0-1.569-.577c-.459-.112-.888-.188-1.287-.226s-.7-.08-.911-.126zm59.706.726l1.125-.922c2.746.3 5.199.449 7.359.449 5.101 0 9.895-.765 14.381-2.295h20.187c4.771 0 9.175.646 13.211 1.936 4.035 1.29 7.591 3.297 10.667 6.02 3.075 2.724 5.473 6.23 7.19 10.521s2.577 9.377 2.577 15.259c0 8.552-1.426 15.123-4.276 19.714s-7.104 8.372-12.761 11.343l-5.445 2.948c-4.456 2.28-8.695 3.421-12.716 3.421-.391 0-.953.015-1.688.045a44.31 44.31 0 0 1-1.644.045c-2.775 0-5.375-.079-7.798-.236s-5.548-.387-9.373-.687c-3.826-.3-6.43-.45-7.81-.45-.57 0-1.298.03-2.183.09-.885.061-1.598.091-2.138.091l-1.755-1.104v-57.072c0-2.221-.146-3.908-.439-5.063s-.942-2.052-1.947-2.689c-1.003-.639-2.578-1.093-4.724-1.364zm39.835 1.756h-25.161v59.908l30.404 1.666c.676.06 1.628.09 2.858.09 3.405 0 6.365-.48 8.878-1.44s4.64-2.569 6.381-4.827c1.74-2.258 3.079-5.356 4.017-9.295s1.43-8.863 1.475-14.774c0-5.762-.713-10.66-2.139-14.696-1.425-4.035-3.417-7.265-5.975-9.688-2.559-2.423-5.574-4.186-9.047-5.288-3.474-1.104-7.371-1.656-11.691-1.656zm43.681-1.935l.383-1.125c1.755.195 3.383.292 4.884.292 1.56 0 3.188-.097 4.883-.292.841-.104 2.094-.439 3.759-1.002s3.053-.844 4.163-.844h15.956c3.017 0 5.882.469 8.598 1.406 2.715.938 4.909 2.431 6.582 4.479 1.673 2.049 2.51 4.61 2.51 7.686 0 2.896-.548 5.312-1.643 7.247a15.083 15.083 0 0 1-4.31 4.839 190.595 190.595 0 0 1-4.299 3.049c-1.088.743-1.632 1.444-1.632 2.104 0 .405 1.253.72 3.759.945 2.505.225 4.876.664 7.111 1.316s4.324 2.123 6.268 4.411 3.02 5.652 3.229 10.094c0 7.637-3.969 13.503-11.905 17.599l-5.063 2.769c-2.476 1.38-4.779 2.37-6.909 2.971-2.131.6-4.493.899-7.089.899-1.11 0-1.974-.03-2.588-.09-3.301-.15-6.842-.318-10.623-.506-3.78-.188-6.602-.326-8.462-.417.375-6.511.562-11.92.562-16.226 0-4.682-.127-9.348-.382-13.998-.15-4.576-.304-8.935-.462-13.076a319.933 319.933 0 0 0-.573-10.847c-.226-3.091-.578-5.882-1.059-8.372-.479-2.49-1.103-3.991-1.867-4.501-.346-.21-.646-.342-.9-.395a15 15 0 0 0-1.17-.168 31.398 31.398 0 0 1-1.711-.247zm31.53.81h-16.969v27.929h7.562c4.516 0 8.308-.3 11.376-.9 3.068-.6 5.641-2.044 7.719-4.332s3.117-5.765 3.117-10.432c-.06-2.445-.668-4.598-1.822-6.459a11.725 11.725 0 0 0-4.647-4.298c-1.944-1.005-4.055-1.508-6.336-1.508zm-16.766 31.709l1.282 30.046c1.591.81 3.725 1.319 6.403 1.529 2.678.21 6.657.314 11.938.314 4.201 0 7.592-.431 10.173-1.293 2.58-.861 4.542-2.484 5.885-4.868s2.015-5.795 2.015-10.233c0-5.262-1.839-9.16-5.515-11.693-3.676-2.534-8.169-3.802-13.48-3.802H243.67zm66.165 34.389l-.562 1.305c-3.556-.495-5.949-.742-7.18-.742-.465 0-1.017.026-1.654.078-.638.053-1.268.124-1.89.214-.623.09-1.317.173-2.082.248l-.743-1.283a158.677 158.677 0 0 0 5.582-9.159c1.65-2.94 3.124-5.78 4.422-8.519 1.298-2.737 2.7-5.862 4.209-9.373 1.508-3.511 2.951-6.909 4.332-10.195 2.265-5.056 4.212-10.033 5.84-14.932s2.441-8.586 2.441-11.062c0-.435-.06-.952-.18-1.553a6.795 6.795 0 0 0-.642-1.587 9.613 9.613 0 0 0-.9-1.305c-.337-.413-.776-.957-1.316-1.632l10.601-1.013c.029.045.877 1.969 2.543 5.772a798.35 798.35 0 0 0 4.658 10.453 489.453 489.453 0 0 0 5.165 10.938c2.003 4.127 3.845 7.728 5.525 10.803l7.764 14.088c2.355 4.276 4.564 7.941 6.628 10.994 2.062 3.054 3.964 5.083 5.705 6.088.45.225 1.95.503 4.501.832l-.54 1.104c-2.521-.495-5.229-.743-8.124-.743-1.921 0-4.007.188-6.257.562L340.892 266.8h-25.903l-10.037 23.968c-.24.48-.36 1.065-.36 1.756 0 .885.24 1.62.721 2.205.553.795 2.061 1.193 4.522 1.193zm29.684-31.71l-14.11-28.379-9.497 28.379h23.607zm44.606-30.244l5.266-3.413c5.041-3.128 9.774-4.691 14.201-4.691 2.37 0 5.07.176 8.102.526 3.03.352 5.948.751 8.754 1.199s4.164.672 4.073.672l.9.739c-1.351 3.961-2.025 7.734-2.025 11.319l-.72.653a78.162 78.162 0 0 0-.653-2.59c-.3-1.127-.607-2.051-.923-2.771-.404-.9-1.732-1.696-3.983-2.387-2.25-.691-4.943-1.217-8.079-1.577s-6.211-.541-9.227-.541c-4.786.12-8.563.785-11.332 1.994-2.768 1.209-4.151 3.833-4.151 7.872 0 5.391 1.777 9.352 5.333 11.882s9.332 3.796 17.329 3.796c6.196.104 11.545 1.646 16.046 4.624 4.501 2.979 6.774 7.461 6.819 13.447 0 5.432-2.729 10.225-8.189 14.381l-2.227 1.665c-.36.271-1.062.766-2.104 1.485-1.043.721-2.344 1.485-3.903 2.296-1.561.81-3.349 1.519-5.365 2.127a21.483 21.483 0 0 1-6.221.911c-2.835-.06-5.999-.296-9.494-.706-3.494-.41-6.723-.855-9.685-1.333-2.963-.479-4.368-.717-4.219-.717l-.919-1.188c1.405-4.562 2.229-8.839 2.468-12.831l.92.923c0 3.574 1.504 5.916 4.513 7.027 2.4.842 5.652 1.63 9.756 2.365s8.038 1.142 11.804 1.216c10.322 0 15.483-4.211 15.483-12.635-.12-3.769-.882-6.787-2.284-9.055-1.403-2.268-3.661-3.931-6.773-4.988-3.114-1.059-7.341-1.634-12.682-1.724-4.332-.074-8.215-.559-11.646-1.452-3.433-.893-6.281-2.597-8.544-5.112-2.264-2.515-3.396-6.047-3.396-10.596.18-2.612 1.133-5.213 2.86-7.803s3.1-4.259 4.117-5.009zM181.079 24.273c3.469 8.617 6.749 20.19 10.21 28.785 15.64-5.316 30.641-4.761 45.649-.092 4.212-8.985 8.916-19.426 12.969-28.073-3.569 4.45-8.083 11.894-13.348 14.664-2.366-5.655-1.162-11.996-1.603-16.271-1.587 4.704-5.695 11.577-9.445 14.452-9.213-5.172-9.742-27.494-9.742-27.494s-2.196 23.414-9.235 26.557c-4.671-2.407-8.949-10.932-10.24-13.193-.032 4.86 1.123 14.878-2.055 16.499-5.322-2.759-9.796-11.736-13.16-15.834z"/><ellipse transform="rotate(-14.211 215.706 5.15)" cx="215.72" cy="5.13" rx="3.809" ry="3.809"/><ellipse transform="rotate(-14.211 195.328 18.164)" cx="195.342" cy="18.147" rx="3.809" ry="3.809"/><ellipse transform="rotate(-14.211 179.35 19.14)" cx="179.363" cy="19.125" rx="3.809" ry="3.809"/><ellipse transform="rotate(-14.211 235.686 18.59)" cx="235.703" cy="18.569" rx="3.809" ry="3.809"/><ellipse transform="rotate(-14.211 251.62 19.446)" cx="251.637" cy="19.424" rx="3.809" ry="3.809"/><path d="M217.201 92.29l-.031.079.061.014-.002-.018-.028-.075zm-94.815-6.197l-.035.03c.016.013.027 0 .035-.03zm-25.012 65.824c6.389 8.235 1.619 18.196-6.708 23.477 2.045-2.945 3.319-6.762 3.468-8.46.161-1.834-.16-3.711-.157-3.657-7.561-5.143-15.581 10.808-23.812-.055-1.43-1.536-5.19-7.331-5.02-11.305 2.316 2.624 6.581 8.009 9.272 8.476 2.952.512 6.452-2.716 9.839-3.975 3.501-1.3 9.424-3.398 13.118-4.501zm-9.842-52.556c-12.245 15.419-30.239 19.127-28.942 28.371.613 2.266-5.499-1.959-5.008-5.069.491-3.111 29.751-25.089 32.463-25.089s2.732.117 1.487 1.787zm-18.16 39.956c-5.045-.788-7.118-2.151-9.953-6.623-.58-.914-1.414-1.872-.536-2.505 2.711-1.954 7.893-5.839 13.951-5.184 1.043.113 3.029 2.428 2.055 2.818-5.491 2.199-1.388 7.257-3.459 10.848-.614 1.066-1.158.787-2.058.646z"/><path d="M130.234 143.113c.369-.843-1.483-2.66-2.448-4.269l7.938-13.297c-10.473-3.853-9.525 5.64-12.915 10.046-8.305-8.613 2.659-15.569 3.177-23.449v11.274c13.069-6.227 3.883-19.977 10.131-25.901-1.661-3.011-4.156-5.874-3.577-6.786 1.92-3.024 4.613-5.939 7.696-7.672 1.434-.806 5.513.507 6.547 2.076 2.826 4.287 6.693 9.311 6.486 13.878-.431 9.534-2.218 19.302-5.294 28.345-3.747 11.018-7.328 12.78-7.819 25.704-.34 9.241 2.51 17.928 9.189 24.949-5.017-22.413-1.909-36.156 14.338-52.959 11.906-11.389 11.057-26.654-.571-38.123-6.695-6.603-14.727-9.782-23.938-10.435 0 0-5.341 4.837-8.502 6.758-11.725 7.127-13.824 12.684-7.662 20.371-1.813 1.32-4.964 2.422-5.235 4.013-1.427 8.395-8.379 10.425-14.297 14.042-2.989 1.827-6.734 4.935-7.189 7.913-1.268 8.316-5.656 12.804-13.737 15.276 4.265 1.097 7.218 2.081 11.114 2.386 3.672.288 2.618.746 6.871.746 2.509 9.07 3.218 10.051 2.318 18.722-.409 4.09-.818 5.072-2.781 10.061 11.207-13.088 11.207-13.088 19.279-30.083-4.473 32.128 37.168 47.031 50.661 56.096-7.736-6.263-26.898-19.449-27.69-20.041-8.304-6.215-19.562-22.586-12.09-39.641z"/><path d="M209.168 72.652c-26.45-27.923-77.361-30.016-122.752-.184 2.615 7.11 9.085 13.697 2.082 22.925 2.885-1.555 5.758-3.81 6.094-5.726 1.405-8.01 8.3-10.297 14.642-12.54-3.171 5.943-8.089.572-13.988 18.266 2.809 0 5.487-9.777 11.834-10.525 5.513-.65 8.734-5.841 8.534-9.906 6.063-1.718 5.898.47 6.681 9.743.013.149.14 1.188.09 1.388 4.334-3.585 10.786-10.379 24.887-11.695-3.128-.966-7.764-2.037-10.668-2.934 15.974-.084 28.229-.215 41.744 8.818 8.855 5.918 11.23 19.147 8.353 29.721-3.71 13.635-10.227 17.686-20.074 26.859-10.934 10.185-16.083 15.057-12.893 37.716 5.481-26.176 14.474-31.348 26.585-41.555 11.896-10.025 25.808-21.836 24.377-40.732-1.151-15.186-16.986-26.409-33.28-31.189-9.709-2.848-20.387-2.394-30.572-3.645 21.069-1.625 39.494 1.213 58.699 14.297 4.22 2.875 17.042 11.152 21.186 33.838.982-19.742-9.047-30.444-11.561-32.94z"/><path d="M94.008 108.899c1.066-5.383-3.308-8.048 11.656-11.543 11.322-2.645-12.35 15.046-11.656 11.543zm18.943-13.506c2.21-.559 2.353-3.734 5.518-8.344 1.482-2.158-6.456 2.008-7.274 3.153s-1.217 4.536-1.217 4.536l2.973.655zm-51.46 48.808s8.95 6.293 18.051 2.563c-.601 6.053-14.888 5.153-18.051-2.563zM213.787 92.29l.031.079-.061.014.002-.018.028-.075zm94.815-6.197l.035.03c-.016.013-.027 0-.035-.03zm-16.788-9.597c-9.211.652-17.243 3.832-23.938 10.435-11.628 11.468-12.476 26.733-.571 38.123 16.247 16.803 19.355 30.546 14.338 52.959 6.679-7.021 9.529-15.708 9.189-24.949-.491-12.925-4.072-14.686-7.819-25.704-3.076-9.044-4.863-18.811-5.294-28.345-.207-4.567 3.66-9.592 6.486-13.878 1.035-1.569 5.114-2.882 6.547-2.076 3.084 1.733 5.777 4.648 7.696 7.672.579.912-1.916 3.776-3.577 6.786 6.248 5.925-2.938 19.675 10.131 25.901v-11.274c.517 7.881 11.481 14.836 3.177 23.449-3.39-4.406-2.442-13.899-12.915-10.046l7.938 13.297c-.965 1.609-2.817 3.425-2.448 4.269 7.472 17.055-3.787 33.426-12.09 39.643-.791.592-19.953 13.778-27.69 20.041 13.492-9.065 55.134-23.968 50.661-56.096 8.072 16.995 8.072 16.995 19.279 30.083-1.963-4.99-2.372-5.971-2.781-10.061-.9-8.671-.191-9.652 2.318-18.722 4.254 0 3.199-.459 6.871-.746 3.896-.306 6.849-1.289 11.114-2.386-8.082-2.472-12.469-6.961-13.737-15.276-.454-2.978-4.199-6.086-7.189-7.913-5.918-3.617-12.87-5.647-14.297-14.042-.27-1.591-3.422-2.692-5.235-4.013 6.162-7.686 4.063-13.244-7.662-20.371-3.16-1.924-8.502-6.76-8.502-6.76z"/><path d="M333.614 151.917c-6.389 8.235-1.619 18.196 6.708 23.477-2.045-2.945-3.319-6.762-3.468-8.46-.161-1.834.16-3.711.157-3.657 7.561-5.143 15.581 10.808 23.812-.055 1.43-1.536 5.19-7.331 5.02-11.305-2.316 2.624-6.581 8.009-9.272 8.476-2.952.512-6.452-2.716-9.839-3.975-3.501-1.3-9.423-3.398-13.118-4.501zm9.842-52.556c12.245 15.419 30.239 19.127 28.941 28.371-.613 2.266 5.499-1.959 5.008-5.069s-29.751-25.089-32.463-25.089c-2.711 0-2.731.117-1.486 1.787zm18.16 39.956c5.045-.788 7.118-2.151 9.953-6.623.58-.914 1.414-1.872.536-2.505-2.711-1.954-7.893-5.839-13.951-5.184-1.043.113-3.029 2.428-2.055 2.818 5.491 2.199 1.388 7.257 3.459 10.848.614 1.066 1.158.787 2.058.646zm-17.044-66.849c-45.39-29.832-96.302-27.739-122.752.184-2.513 2.496-12.543 13.197-11.561 32.938 4.145-22.686 16.966-30.963 21.186-33.838 19.205-13.084 37.63-15.922 58.699-14.297-10.186 1.25-20.863.797-30.572 3.645-16.294 4.78-32.13 16.003-33.28 31.189-1.432 18.895 12.48 30.706 24.377 40.732 12.111 10.206 21.105 15.379 26.585 41.555 3.19-22.659-1.959-27.531-12.893-37.716-9.848-9.173-16.365-13.224-20.074-26.859-2.877-10.573-.502-23.803 8.353-29.721 13.515-9.032 25.77-8.901 41.744-8.818-2.904.897-7.54 1.968-10.668 2.934 14.101 1.316 20.552 8.111 24.887 11.695-.05-.2.077-1.239.09-1.388.782-9.273.618-11.461 6.681-9.743-.2 4.066 3.021 9.257 8.534 9.907 6.347.748 9.025 10.525 11.834 10.525-5.898-17.694-10.817-12.323-13.988-18.266 6.342 2.243 13.237 4.53 14.642 12.54.336 1.916 3.209 4.171 6.094 5.726-7.004-9.227-.534-15.814 2.082-22.924z"/><path d="M336.98 108.899c-1.066-5.383 3.308-8.048-11.656-11.543-11.322-2.645 12.35 15.046 11.656 11.543zm-18.943-13.506c-2.21-.559-2.353-3.734-5.518-8.344-1.482-2.158 6.456 2.008 7.274 3.153.818 1.145 1.217 4.536 1.217 4.536l-2.973.655zm51.46 48.808s-8.95 6.293-18.051 2.563c.601 6.053 14.889 5.153 18.051-2.563z"/></svg>