<?xml version="1.0" encoding="utf-8"?>
<!-- Generator: Adobe Illustrator 21.0.0, SVG Export Plug-In . SVG Version: 6.00 Build 0)  -->
<svg version="1.1" id="Слой_1" xmlns="http://www.w3.org/2000/svg" xmlns:xlink="http://www.w3.org/1999/xlink" x="0px" y="0px"
	 viewBox="0 0 110 100" enable-background="new 0 0 110 100" xml:space="preserve">
<path d="M55,99l-7.77-7.018c-13.871-12.195-24.9-23.059-33.085-32.583C5.957,49.875,1.779,40.187,1.614,30.325
	c0.165-8.354,3.008-15.289,8.522-20.803C15.65,4.008,22.581,1.169,30.939,1c4.676,0,9.105,1.003,13.284,3.008
	c4.175,2.005,7.77,4.68,10.778,8.021c3.007-3.34,6.599-6.016,10.777-8.021C69.952,2.003,74.382,1,79.062,1
	c8.353,0.169,15.289,3.008,20.803,8.522c5.514,5.514,8.354,12.449,8.522,20.803c-0.168,9.861-4.347,19.55-12.532,29.074
	c-8.189,9.524-19.217,20.388-33.084,32.583L55,99z"/>
</svg>
