<?xml version="1.0" encoding="utf-8"?>
<!-- Generator: Adobe Illustrator 21.0.0, SVG Export Plug-In . SVG Version: 6.00 Build 0)  -->
<svg version="1.1" id="Слой_1" xmlns="http://www.w3.org/2000/svg" xmlns:xlink="http://www.w3.org/1999/xlink" x="0px" y="0px"
	 viewBox="0 0 110 100" enable-background="new 0 0 110 100" xml:space="preserve">
<path fill="#FFFFFF" d="M99.865,9.522c5.513,5.514,8.353,12.449,8.521,20.803c-0.168,9.861-4.347,19.55-12.532,29.074
	c-8.189,9.524-19.217,20.388-33.084,32.583L55,99l-7.77-7.018c-13.871-12.195-24.9-23.059-33.085-32.583
	C5.957,49.875,1.779,40.187,1.614,30.325c0.165-8.354,3.008-15.289,8.522-20.803S22.581,1.169,30.939,1
	c4.676,0,9.105,1.003,13.284,3.008c4.175,2.005,7.77,4.68,10.778,8.021c3.007-3.34,6.599-6.016,10.777-8.021
	C69.952,2.003,74.382,1,79.062,1C87.415,1.169,94.351,4.008,99.865,9.522z M86.205,54.512c7.601-8.436,11.486-16.5,11.654-24.187
	c-0.168-5.346-1.965-9.775-5.388-13.284c-3.427-3.509-7.895-5.264-13.409-5.264c-4.179,0-8.021,1.171-11.529,3.509
	c-3.509,2.342-6.015,5.349-7.519,9.023H49.987c-1.504-3.674-4.01-6.681-7.519-9.023c-3.509-2.338-7.355-3.509-11.529-3.509
	c-5.514,0-9.987,1.754-13.409,5.264c-3.427,3.509-5.225,7.938-5.389,13.284c0.164,7.687,4.049,15.751,11.655,24.187
	c7.601,8.439,17.834,18.339,30.703,29.7L55,84.714l0.501-0.501C68.366,72.851,78.599,62.952,86.205,54.512z"/>
</svg>
